%TF.GenerationSoftware,KiCad,Pcbnew,7.0.5*%
%TF.CreationDate,2023-12-05T21:06:27-03:00*%
%TF.ProjectId,Telemetria_Hardware,54656c65-6d65-4747-9269-615f48617264,rev?*%
%TF.SameCoordinates,Original*%
%TF.FileFunction,Soldermask,Top*%
%TF.FilePolarity,Negative*%
%FSLAX46Y46*%
G04 Gerber Fmt 4.6, Leading zero omitted, Abs format (unit mm)*
G04 Created by KiCad (PCBNEW 7.0.5) date 2023-12-05 21:06:27*
%MOMM*%
%LPD*%
G01*
G04 APERTURE LIST*
%ADD10C,2.000000*%
%ADD11C,1.875000*%
%ADD12C,1.600000*%
%ADD13O,1.600000X1.600000*%
%ADD14R,1.950000X1.950000*%
%ADD15C,1.950000*%
%ADD16C,1.700000*%
%ADD17C,1.665000*%
%ADD18C,1.500000*%
%ADD19R,1.700000X1.700000*%
%ADD20O,1.700000X1.700000*%
%ADD21C,1.524000*%
%TA.AperFunction,Profile*%
%ADD22C,0.100000*%
%TD*%
G04 APERTURE END LIST*
D10*
%TO.C,MPPT*%
X73660000Y-114300000D03*
D11*
X73660000Y-109300000D03*
%TD*%
D10*
%TO.C,PCB_Vin1*%
X73660000Y-101600000D03*
D11*
X73660000Y-96600000D03*
%TD*%
D10*
%TO.C,STEP*%
X139700000Y-107315000D03*
X139700000Y-102315000D03*
%TD*%
D12*
%TO.C,R2*%
X82586666Y-106680000D03*
D13*
X92746666Y-106680000D03*
%TD*%
D12*
%TO.C,R1*%
X92746666Y-111760000D03*
D13*
X82586666Y-111760000D03*
%TD*%
D14*
%TO.C,M100A*%
X88900000Y-53040000D03*
D15*
X93980000Y-53040000D03*
X99060000Y-53040000D03*
%TD*%
D16*
%TO.C,ADS1115*%
X88809666Y-64770000D03*
D17*
X88809666Y-67310000D03*
X88809666Y-69850000D03*
X88809666Y-72390000D03*
X88809666Y-74930000D03*
X88809666Y-77470000D03*
X88809666Y-80010000D03*
X88809666Y-82550000D03*
X88809666Y-85090000D03*
X88809666Y-87630000D03*
D18*
X76363666Y-64770000D03*
X76363666Y-87630000D03*
%TD*%
D15*
%TO.C,B150A*%
X111760000Y-53340000D03*
X116840000Y-53340000D03*
X121920000Y-53340000D03*
%TD*%
D19*
%TO.C,DHT*%
X87640000Y-121945000D03*
D20*
X90180000Y-121945000D03*
X92720000Y-121945000D03*
X95260000Y-121945000D03*
%TD*%
D12*
%TO.C,C2*%
X77506666Y-121920000D03*
X77506666Y-124420000D03*
%TD*%
D18*
%TO.C,ESP32*%
X129540000Y-71730000D03*
X129540000Y-74270000D03*
X129540000Y-76810000D03*
D16*
X129540000Y-79350000D03*
X129540000Y-81890000D03*
D18*
X129540000Y-84430000D03*
X129540000Y-86970000D03*
X129540000Y-89510000D03*
X129540000Y-92050000D03*
X129540000Y-94590000D03*
X129540000Y-97130000D03*
X129540000Y-99670000D03*
X129540000Y-102210000D03*
X129540000Y-104750000D03*
D16*
X129540000Y-107290000D03*
X104140000Y-107290000D03*
X104140000Y-104750000D03*
X104140000Y-102210000D03*
D18*
X104140000Y-99670000D03*
X104140000Y-97130000D03*
D16*
X104140000Y-94590000D03*
D21*
X104140000Y-92050000D03*
X104140000Y-89510000D03*
X104140000Y-86970000D03*
X104140000Y-84430000D03*
D16*
X104140000Y-81890000D03*
D21*
X104140000Y-79350000D03*
X104140000Y-76810000D03*
D16*
X104140000Y-74270000D03*
D21*
X104140000Y-71730000D03*
%TD*%
D12*
%TO.C,R3*%
X92710000Y-101600000D03*
D13*
X82550000Y-101600000D03*
%TD*%
D12*
%TO.C,C1*%
X139700000Y-119380000D03*
X139700000Y-121880000D03*
%TD*%
D16*
%TO.C,ACS1*%
X140970000Y-58420000D03*
D20*
X140970000Y-60960000D03*
X140970000Y-63500000D03*
%TD*%
D16*
%TO.C,ACS2*%
X140970000Y-81280000D03*
D20*
X140970000Y-78740000D03*
X140970000Y-76200000D03*
%TD*%
D12*
%TO.C,R4*%
X92746666Y-93980000D03*
D13*
X82586666Y-93980000D03*
%TD*%
D22*
X149860000Y-45720000D02*
X68580000Y-45720000D01*
X68580000Y-45720000D02*
X68580000Y-133350000D01*
X68580000Y-133350000D02*
X149860000Y-133350000D01*
X149860000Y-133350000D02*
X149860000Y-45720000D01*
M02*
