M48
; DRILL file {KiCad 7.0.5} date Tue Dec  5 21:06:32 2023
; FORMAT={-:-/ absolute / metric / decimal}
; #@! TF.CreationDate,2023-12-05T21:06:32-03:00
; #@! TF.GenerationSoftware,Kicad,Pcbnew,7.0.5
; #@! TF.FileFunction,Plated,1,2,PTH
FMAT,2
METRIC
; #@! TA.AperFunction,Plated,PTH,ComponentDrill
T1C0.762
; #@! TA.AperFunction,Plated,PTH,ComponentDrill
T2C0.800
; #@! TA.AperFunction,Plated,PTH,ComponentDrill
T3C1.000
; #@! TA.AperFunction,Plated,PTH,ComponentDrill
T4C1.110
; #@! TA.AperFunction,Plated,PTH,ComponentDrill
T5C1.250
; #@! TA.AperFunction,Plated,PTH,ComponentDrill
T6C1.300
%
G90
G05
T1
X104.14Y-71.73
X104.14Y-74.27
X104.14Y-76.81
X104.14Y-79.35
X104.14Y-81.89
X104.14Y-84.43
X104.14Y-86.97
X104.14Y-89.51
X104.14Y-92.05
X104.14Y-94.59
T2
X77.507Y-121.92
X77.507Y-124.42
X82.55Y-101.6
X82.587Y-93.98
X82.587Y-106.68
X82.587Y-111.76
X92.71Y-101.6
X92.747Y-93.98
X92.747Y-106.68
X92.747Y-111.76
X104.14Y-97.13
X104.14Y-99.67
X104.14Y-102.21
X104.14Y-104.75
X104.14Y-107.29
X129.54Y-71.73
X129.54Y-74.27
X129.54Y-76.81
X129.54Y-79.35
X129.54Y-81.89
X129.54Y-84.43
X129.54Y-86.97
X129.54Y-89.51
X129.54Y-92.05
X129.54Y-94.59
X129.54Y-97.13
X129.54Y-99.67
X129.54Y-102.21
X129.54Y-104.75
X129.54Y-107.29
X139.7Y-119.38
X139.7Y-121.88
T3
X76.364Y-64.77
X76.364Y-87.63
X87.64Y-121.945
X90.18Y-121.945
X92.72Y-121.945
X95.26Y-121.945
X140.97Y-58.42
X140.97Y-60.96
X140.97Y-63.5
X140.97Y-76.2
X140.97Y-78.74
X140.97Y-81.28
T4
X88.81Y-64.77
X88.81Y-67.31
X88.81Y-69.85
X88.81Y-72.39
X88.81Y-74.93
X88.81Y-77.47
X88.81Y-80.01
X88.81Y-82.55
X88.81Y-85.09
X88.81Y-87.63
T5
X73.66Y-96.6
X73.66Y-101.6
X73.66Y-109.3
X73.66Y-114.3
X139.7Y-102.315
X139.7Y-107.315
T6
X88.9Y-53.04
X93.98Y-53.04
X99.06Y-53.04
X111.76Y-53.34
X116.84Y-53.34
X121.92Y-53.34
T0
M30
